<svg width="81" height="69" viewBox="0 0 81 69" fill="none" xmlns="http://www.w3.org/2000/svg">
<g clip-path="url(#clip0_153_66)">
<path d="M64.125 10.0625H16.875C15.0188 10.0625 13.5 11.3563 13.5 12.9375V21.5625C13.5 23.1438 15.0188 24.4375 16.875 24.4375H64.125C65.9813 24.4375 67.5 23.1438 67.5 21.5625V12.9375C67.5 11.3563 65.9813 10.0625 64.125 10.0625ZM64.125 27.3125H16.875C15.0188 27.3125 13.5 28.6063 13.5 30.1875V38.8125C13.5 40.3938 15.0188 41.6875 16.875 41.6875H64.125C65.9813 41.6875 67.5 40.3938 67.5 38.8125V30.1875C67.5 28.6063 65.9813 27.3125 64.125 27.3125ZM64.125 44.5625H16.875C15.0188 44.5625 13.5 45.8563 13.5 47.4375V56.0625C13.5 57.6438 15.0188 58.9375 16.875 58.9375H64.125C65.9813 58.9375 67.5 57.6438 67.5 56.0625V47.4375C67.5 45.8563 65.9813 44.5625 64.125 44.5625Z" fill="#D1C4E9"/>
<path d="M64.125 69C73.4448 69 81 62.5641 81 54.625C81 46.6859 73.4448 40.25 64.125 40.25C54.8052 40.25 47.25 46.6859 47.25 54.625C47.25 62.5641 54.8052 69 64.125 69Z" fill="#43A047"/>
<path d="M71.7187 47.8688L62.1 56.0625L57.5437 52.1813L54 55.3438L62.1 62.2438L75.2625 51.0313L71.7187 47.8688Z" fill="#DCEDC8"/>
</g>
<defs>
<clipPath id="clip0_153_66">
<rect width="81" height="69" fill="white"/>
</clipPath>
</defs>
</svg>
