<svg width="1728" height="656" viewBox="0 0 1728 656" fill="none" xmlns="http://www.w3.org/2000/svg">
<path d="M1691.18 22.4218C1691.18 22.4218 1536.9 354.005 1274.97 237.163C1139.09 176.551 879.319 -5.06361 626.723 225.943C374.128 456.95 -0.280266 252.08 4.64999 256.916" stroke="black" stroke-width="0.1"/>
<path d="M1691.18 92.8756C1691.18 92.8756 1536.9 424.459 1274.97 307.617C1139.09 247.004 879.319 65.3901 626.723 296.397C374.128 527.403 -0.280266 322.534 4.64999 327.37" stroke="black" stroke-width="0.1"/>
<path d="M1691.18 125.861C1691.18 125.861 1536.9 457.444 1274.97 340.602C1139.09 279.989 879.319 98.3752 626.723 329.382C374.128 560.388 -0.280266 355.519 4.64999 360.355" stroke="black" stroke-width="0.1"/>
<path d="M1691.18 160.845C1691.18 160.845 1536.9 492.428 1274.97 375.586C1139.09 314.974 879.319 133.359 626.723 364.366C374.128 595.373 -0.280266 390.503 4.64999 395.339" stroke="black" stroke-width="0.1"/>
<path d="M1691.18 196.829C1691.18 196.829 1536.9 528.412 1274.97 411.57C1139.09 350.957 879.319 169.343 626.723 400.35C374.128 631.356 -0.280266 426.487 4.64999 431.323" stroke="black" stroke-width="0.1"/>
<path d="M1691.18 228.814C1691.18 228.814 1536.9 560.397 1274.97 443.555C1139.09 382.943 879.319 201.329 626.723 432.335C374.128 663.342 -0.280266 458.472 4.64999 463.308" stroke="black" stroke-width="0.1"/>
<path d="M1691.18 56.8918C1691.18 56.8918 1536.9 388.475 1274.97 271.633C1139.09 211.021 879.319 29.4064 626.723 260.413C374.128 491.42 -0.280266 286.55 4.64999 291.386" stroke="black" stroke-width="0.1"/>
</svg>
