<svg width="62" height="68" viewBox="0 0 62 68" fill="none" xmlns="http://www.w3.org/2000/svg">
<path d="M55.9283 58.4375C55.7582 58.7606 55.5136 59.0289 55.219 59.2154C54.9243 59.402 54.5901 59.5001 54.25 59.5H7.74997C7.41003 59.4996 7.07617 59.4012 6.78191 59.2145C6.48765 59.0278 6.24335 58.7596 6.07353 58.4366C5.90372 58.1136 5.81437 57.7473 5.81445 57.3745C5.81454 57.0017 5.90406 56.6354 6.07403 56.3125C9.76254 49.3186 15.4467 44.3036 22.0802 41.9263C18.799 39.7839 16.2496 36.5194 14.8237 32.6342C13.3978 28.7489 13.1742 24.4577 14.1872 20.4196C15.2001 16.3814 17.3937 12.8196 20.431 10.2811C23.4683 7.74261 27.1813 6.3678 31 6.3678C34.8186 6.3678 38.5317 7.74261 41.569 10.2811C44.6063 12.8196 46.7998 16.3814 47.8128 20.4196C48.8257 24.4577 48.6021 28.7489 47.1762 32.6342C45.7503 36.5194 43.201 39.7839 39.9197 41.9263C46.5532 44.3036 52.2374 49.3186 55.9259 56.3125C56.0963 56.6353 56.1863 57.0017 56.1867 57.3747C56.1871 57.7477 56.098 58.1143 55.9283 58.4375Z" fill="#010A4B"/>
</svg>
