<svg width="71" height="61" viewBox="0 0 71 61" fill="none" xmlns="http://www.w3.org/2000/svg">
<path d="M23.43 11.4375C23.43 9.41522 22.682 7.47578 21.3505 6.04581C20.0189 4.61585 18.213 3.8125 16.33 3.8125C14.447 3.8125 12.6411 4.61585 11.3095 6.04581C9.97803 7.47578 9.23 9.41522 9.23 11.4375C9.23 13.4598 9.97803 15.3992 11.3095 16.8292C12.6411 18.2592 14.447 19.0625 16.33 19.0625C18.213 19.0625 20.0189 18.2592 21.3505 16.8292C22.682 15.3992 23.43 13.4598 23.43 11.4375ZM3.55 30.5C3.55 32.6088 5.13641 34.3125 7.1 34.3125H16.5963C17.7167 29.6184 20.8784 25.7939 25.0053 23.9949C23.9292 23.2801 22.6534 22.875 21.3 22.875H10.65C6.73391 22.875 3.55 26.2943 3.55 30.5ZM54.7588 34.3125H63.9C65.8636 34.3125 67.45 32.6088 67.45 30.5C67.45 26.2943 64.2661 22.875 60.35 22.875H49.7C48.402 22.875 47.1817 23.2443 46.1389 23.8996C50.3656 25.6629 53.6161 29.535 54.7588 34.3125ZM43.3988 26.9734C42.6333 26.7828 41.8234 26.6875 41.0025 26.6875H30.3525C29.4095 26.6875 28.4998 26.8186 27.6345 27.0568C24.2177 28.0219 21.4664 30.7621 20.3016 34.3125C19.9133 35.5039 19.6914 36.7906 19.6914 38.125C19.6914 40.2338 21.2778 41.9375 23.2414 41.9375H48.0914C50.055 41.9375 51.6414 40.2338 51.6414 38.125C51.6414 36.7906 51.4306 35.5039 51.0312 34.3125C49.8331 30.6549 46.9487 27.8551 43.3877 26.9734H43.3988ZM62.48 11.4375C62.48 9.41522 61.732 7.47578 60.4005 6.04581C59.069 4.61585 57.263 3.8125 55.38 3.8125C53.497 3.8125 51.691 4.61585 50.3595 6.04581C49.028 7.47578 48.28 9.41522 48.28 11.4375C48.28 13.4598 49.028 15.3992 50.3595 16.8292C51.691 18.2592 53.497 19.0625 55.38 19.0625C57.263 19.0625 59.069 18.2592 60.4005 16.8292C61.732 15.3992 62.48 13.4598 62.48 11.4375ZM35.6775 22.875C38.0313 22.875 40.2887 21.8708 41.9531 20.0834C43.6175 18.2959 44.5525 15.8716 44.5525 13.3438C44.5525 10.8159 43.6175 8.39159 41.9531 6.60414C40.2887 4.81668 38.0313 3.8125 35.6775 3.8125C33.3237 3.8125 31.0663 4.81668 29.4019 6.60414C27.7375 8.39159 26.8025 10.8159 26.8025 13.3438C26.8025 15.8716 27.7375 18.2959 29.4019 20.0834C31.0663 21.8708 33.3237 22.875 35.6775 22.875ZM3.55 49.5625C1.58641 49.5625 0 51.2662 0 53.375C0 55.4838 1.58641 57.1875 3.55 57.1875H67.45C69.4136 57.1875 71 55.4838 71 53.375C71 51.2662 69.4136 49.5625 67.45 49.5625H3.55Z" fill="#85B6FF"/>
</svg>
